<svg width="14" height="14" viewBox="0 0 14 14" fill="none" xmlns="http://www.w3.org/2000/svg">
<path d="M3.33333 1.66732C3.33333 0.930938 3.93029 0.333984 4.66667 0.333984H8.66667C9.40305 0.333984 10 0.930938 10 1.66732V3.00065H11.3265C11.3306 3.00061 11.3347 3.00061 11.3388 3.00065H12.6667C13.0349 3.00065 13.3333 3.29913 13.3333 3.66732C13.3333 4.03551 13.0349 4.33398 12.6667 4.33398H11.9541L11.3759 12.429C11.326 13.1267 10.7454 13.6673 10.0459 13.6673H3.28741C2.58789 13.6673 2.00731 13.1267 1.95747 12.429L1.37925 4.33398H0.666667C0.298477 4.33398 0 4.03551 0 3.66732C0 3.29913 0.298477 3.00065 0.666667 3.00065H1.9945C1.99863 3.00061 2.00276 3.00061 2.00688 3.00065H3.33333V1.66732ZM4.66667 3.00065H8.66667V1.66732H4.66667V3.00065ZM2.71598 4.33398L3.28741 12.334H10.0459L10.6173 4.33398H2.71598ZM5.33333 5.66732C5.70152 5.66732 6 5.96579 6 6.33398V10.334C6 10.7022 5.70152 11.0007 5.33333 11.0007C4.96514 11.0007 4.66667 10.7022 4.66667 10.334V6.33398C4.66667 5.96579 4.96514 5.66732 5.33333 5.66732ZM8 5.66732C8.36819 5.66732 8.66667 5.96579 8.66667 6.33398V10.334C8.66667 10.7022 8.36819 11.0007 8 11.0007C7.63181 11.0007 7.33333 10.7022 7.33333 10.334V6.33398C7.33333 5.96579 7.63181 5.66732 8 5.66732Z" fill="white"/>
</svg>
