<svg width="24" height="24" viewBox="0 0 24 24" fill="none" xmlns="http://www.w3.org/2000/svg">
<path d="M3.19681 13.1899C2.35621 11.7737 2.06157 10.0993 2.36823 8.48122C2.6749 6.86312 3.56176 5.41264 4.86226 4.4022C6.16277 3.39177 7.78743 2.89089 9.43112 2.99365C11.0748 3.0964 12.6245 3.79572 13.789 4.96025C14.9535 6.12479 15.6528 7.67442 15.7556 9.31812C15.8584 10.9618 15.3575 12.5865 14.347 13.887C13.3366 15.1875 11.8861 16.0743 10.268 16.381C8.64992 16.6877 6.97553 16.393 5.55931 15.5524L3.22494 16.2181C3.12875 16.2451 3.02711 16.246 2.93044 16.2208C2.83378 16.1955 2.74559 16.1449 2.67494 16.0743C2.6043 16.0037 2.55374 15.9155 2.52847 15.8188C2.50321 15.7221 2.50414 15.6205 2.53119 15.5243L3.19681 13.1899Z" stroke="#242A33" stroke-width="2" stroke-linecap="round" stroke-linejoin="round"/>
<path d="M8.63281 16.4891C8.96323 17.4311 9.49877 18.288 10.2007 18.9978C10.9027 19.7077 11.7536 20.2527 12.6919 20.5936C13.6302 20.9345 14.6325 21.0627 15.6264 20.9689C16.6204 20.8752 17.581 20.5619 18.4391 20.0516V20.0516L20.7734 20.7172C20.8696 20.7442 20.9713 20.7452 21.0679 20.7199C21.1646 20.6946 21.2528 20.6441 21.3234 20.5734C21.3941 20.5028 21.4446 20.4146 21.4699 20.3179C21.4952 20.2213 21.4942 20.1196 21.4672 20.0234L20.8016 17.6891C21.3958 16.6916 21.7223 15.5575 21.7495 14.3967C21.7766 13.236 21.5035 12.0879 20.9565 11.0637C20.4095 10.0395 19.6072 9.17401 18.6274 8.55102C17.6477 7.92802 16.5235 7.56868 15.3641 7.50781" stroke="#242A33" stroke-width="2" stroke-linecap="round" stroke-linejoin="round"/>
</svg>
