<svg width="22" height="22" viewBox="0 0 22 22" fill="none" xmlns="http://www.w3.org/2000/svg">
<path d="M8.2513 4.58333C7.74504 4.58333 7.33464 4.99374 7.33464 5.5C7.33464 6.00626 7.74504 6.41667 8.2513 6.41667C8.75756 6.41667 9.16797 6.00626 9.16797 5.5C9.16797 4.99374 8.75756 4.58333 8.2513 4.58333ZM5.65778 4.58333C6.0353 3.51524 7.05393 2.75 8.2513 2.75C9.44867 2.75 10.4673 3.51524 10.8448 4.58333H17.418C17.9242 4.58333 18.3346 4.99374 18.3346 5.5C18.3346 6.00626 17.9242 6.41667 17.418 6.41667H10.8448C10.4673 7.48476 9.44867 8.25 8.2513 8.25C7.05393 8.25 6.0353 7.48476 5.65778 6.41667H4.58464C4.07837 6.41667 3.66797 6.00626 3.66797 5.5C3.66797 4.99374 4.07837 4.58333 4.58464 4.58333H5.65778ZM13.7513 10.0833C13.245 10.0833 12.8346 10.4937 12.8346 11C12.8346 11.5063 13.245 11.9167 13.7513 11.9167C14.2576 11.9167 14.668 11.5063 14.668 11C14.668 10.4937 14.2576 10.0833 13.7513 10.0833ZM11.1578 10.0833C11.5353 9.01524 12.5539 8.25 13.7513 8.25C14.9487 8.25 15.9673 9.01524 16.3448 10.0833H17.418C17.9242 10.0833 18.3346 10.4937 18.3346 11C18.3346 11.5063 17.9242 11.9167 17.418 11.9167H16.3448C15.9673 12.9848 14.9487 13.75 13.7513 13.75C12.5539 13.75 11.5353 12.9848 11.1578 11.9167H4.58464C4.07837 11.9167 3.66797 11.5063 3.66797 11C3.66797 10.4937 4.07837 10.0833 4.58464 10.0833H11.1578ZM8.2513 15.5833C7.74504 15.5833 7.33464 15.9937 7.33464 16.5C7.33464 17.0063 7.74504 17.4167 8.2513 17.4167C8.75756 17.4167 9.16797 17.0063 9.16797 16.5C9.16797 15.9937 8.75756 15.5833 8.2513 15.5833ZM5.65778 15.5833C6.0353 14.5152 7.05393 13.75 8.2513 13.75C9.44867 13.75 10.4673 14.5152 10.8448 15.5833H17.418C17.9242 15.5833 18.3346 15.9937 18.3346 16.5C18.3346 17.0063 17.9242 17.4167 17.418 17.4167H10.8448C10.4673 18.4848 9.44867 19.25 8.2513 19.25C7.05393 19.25 6.0353 18.4848 5.65778 17.4167H4.58464C4.07837 17.4167 3.66797 17.0063 3.66797 16.5C3.66797 15.9937 4.07837 15.5833 4.58464 15.5833H5.65778Z" fill="#636870"/>
</svg>
