<svg width="132" height="20" viewBox="0 0 132 20" fill="none" xmlns="http://www.w3.org/2000/svg">
<path d="M9.13589 1.48359C9.52162 0.821321 10.4784 0.821321 10.8641 1.48359L13.011 5.16962C13.1523 5.41222 13.3891 5.58425 13.6635 5.64367L17.8326 6.54646C18.5816 6.70867 18.8773 7.6186 18.3666 8.1901L15.5244 11.371C15.3374 11.5803 15.2469 11.8587 15.2752 12.138L15.7049 16.382C15.7821 17.1445 15.0081 17.7069 14.3067 17.3978L10.4032 15.6777C10.1463 15.5645 9.85366 15.5645 9.59675 15.6777L5.69326 17.3978C4.99192 17.7069 4.21789 17.1445 4.2951 16.382L4.7248 12.138C4.75308 11.8587 4.66264 11.5803 4.47558 11.371L1.63339 8.1901C1.12273 7.6186 1.41838 6.70867 2.16744 6.54646L6.3365 5.64367C6.61089 5.58425 6.84767 5.41222 6.98897 5.16962L9.13589 1.48359Z" fill="#FFC224"/>
<path d="M37.1359 1.48359C37.5216 0.821321 38.4784 0.821321 38.8641 1.48359L41.011 5.16962C41.1523 5.41222 41.3891 5.58425 41.6635 5.64367L45.8326 6.54646C46.5816 6.70867 46.8773 7.6186 46.3666 8.1901L43.5244 11.371C43.3374 11.5803 43.2469 11.8587 43.2752 12.138L43.7049 16.382C43.7821 17.1445 43.0081 17.7069 42.3067 17.3978L38.4032 15.6777C38.1463 15.5645 37.8537 15.5645 37.5968 15.6777L33.6933 17.3978C32.9919 17.7069 32.2179 17.1445 32.2951 16.382L32.7248 12.138C32.7531 11.8587 32.6626 11.5803 32.4756 11.371L29.6334 8.1901C29.1227 7.6186 29.4184 6.70867 30.1674 6.54646L34.3365 5.64367C34.6109 5.58425 34.8477 5.41222 34.989 5.16962L37.1359 1.48359Z" fill="#FFC224"/>
<path d="M65.1359 1.48359C65.5216 0.821321 66.4784 0.821321 66.8641 1.48359L69.011 5.16962C69.1523 5.41222 69.3891 5.58425 69.6635 5.64367L73.8326 6.54646C74.5816 6.70867 74.8773 7.6186 74.3666 8.1901L71.5244 11.371C71.3374 11.5803 71.2469 11.8587 71.2752 12.138L71.7049 16.382C71.7821 17.1445 71.0081 17.7069 70.3067 17.3978L66.4032 15.6777C66.1463 15.5645 65.8537 15.5645 65.5968 15.6777L61.6933 17.3978C60.9919 17.7069 60.2179 17.1445 60.2951 16.382L60.7248 12.138C60.7531 11.8587 60.6626 11.5803 60.4756 11.371L57.6334 8.1901C57.1227 7.6186 57.4184 6.70867 58.1674 6.54646L62.3365 5.64367C62.6109 5.58425 62.8477 5.41222 62.989 5.16962L65.1359 1.48359Z" fill="#FFC224"/>
<path d="M93.1359 1.48359C93.5216 0.821321 94.4784 0.821321 94.8641 1.48359L97.011 5.16962C97.1523 5.41222 97.3891 5.58425 97.6635 5.64367L101.833 6.54646C102.582 6.70867 102.877 7.6186 102.367 8.1901L99.5244 11.371C99.3374 11.5803 99.2469 11.8587 99.2752 12.138L99.7049 16.382C99.7821 17.1445 99.0081 17.7069 98.3067 17.3978L94.4032 15.6777C94.1463 15.5645 93.8537 15.5645 93.5968 15.6777L89.6933 17.3978C88.9919 17.7069 88.2179 17.1445 88.2951 16.382L88.7248 12.138C88.7531 11.8587 88.6626 11.5803 88.4756 11.371L85.6334 8.1901C85.1227 7.6186 85.4184 6.70867 86.1674 6.54646L90.3365 5.64367C90.6109 5.58425 90.8477 5.41222 90.989 5.16962L93.1359 1.48359Z" fill="#FFC224"/>
<path d="M121.136 1.48359C121.522 0.821321 122.478 0.821321 122.864 1.48359L125.011 5.16962C125.152 5.41222 125.389 5.58425 125.664 5.64367L129.833 6.54646C130.582 6.70867 130.877 7.6186 130.367 8.1901L127.524 11.371C127.337 11.5803 127.247 11.8587 127.275 12.138L127.705 16.382C127.782 17.1445 127.008 17.7069 126.307 17.3978L122.403 15.6777C122.146 15.5645 121.854 15.5645 121.597 15.6777L117.693 17.3978C116.992 17.7069 116.218 17.1445 116.295 16.382L116.725 12.138C116.753 11.8587 116.663 11.5803 116.476 11.371L113.633 8.1901C113.123 7.6186 113.418 6.70867 114.167 6.54646L118.336 5.64367C118.611 5.58425 118.848 5.41222 118.989 5.16962L121.136 1.48359Z" fill="#FFC224"/>
</svg>
