<svg width="41" height="40" viewBox="0 0 41 40" fill="none" xmlns="http://www.w3.org/2000/svg">
<path d="M20.5 4C11.6634 4 4.5 11.1634 4.5 20C4.5 28.8366 11.6634 36 20.5 36C29.3366 36 36.5 28.8366 36.5 20C36.5 11.1634 29.3366 4 20.5 4ZM0.5 20C0.5 8.9543 9.4543 0 20.5 0C31.5457 0 40.5 8.9543 40.5 20C40.5 31.0457 31.5457 40 20.5 40C9.4543 40 0.5 31.0457 0.5 20Z" fill="#FFC224"/>
<path d="M20.5 24C19.3954 24 18.5 23.1046 18.5 22L18.5 10C18.5 8.89543 19.3954 8 20.5 8C21.6046 8 22.5 8.89543 22.5 10L22.5 22C22.5 23.1046 21.6046 24 20.5 24Z" fill="#FFC224"/>
<path d="M17.5 29C17.5 27.3431 18.8431 26 20.5 26C22.1569 26 23.5 27.3431 23.5 29C23.5 30.6569 22.1569 32 20.5 32C18.8431 32 17.5 30.6569 17.5 29Z" fill="#FFC224"/>
</svg>
