<svg width="14" height="14" viewBox="0 0 14 14" fill="none" xmlns="http://www.w3.org/2000/svg">
<path d="M6.9987 1.66536C4.05318 1.66536 1.66536 4.05318 1.66536 6.9987C1.66536 9.94422 4.05318 12.332 6.9987 12.332C9.94422 12.332 12.332 9.94422 12.332 6.9987C12.332 4.05318 9.94422 1.66536 6.9987 1.66536ZM0.332031 6.9987C0.332031 3.3168 3.3168 0.332031 6.9987 0.332031C10.6806 0.332031 13.6654 3.3168 13.6654 6.9987C13.6654 10.6806 10.6806 13.6654 6.9987 13.6654C3.3168 13.6654 0.332031 10.6806 0.332031 6.9987Z" fill="#636870"/>
<path d="M6.9987 5.66536C7.36689 5.66536 7.66536 5.96384 7.66536 6.33203V10.332C7.66536 10.7002 7.36689 10.9987 6.9987 10.9987C6.63051 10.9987 6.33203 10.7002 6.33203 10.332V6.33203C6.33203 5.96384 6.63051 5.66536 6.9987 5.66536Z" fill="#636870"/>
<path d="M7.9987 3.9987C7.9987 4.55098 7.55098 4.9987 6.9987 4.9987C6.44641 4.9987 5.9987 4.55098 5.9987 3.9987C5.9987 3.44641 6.44641 2.9987 6.9987 2.9987C7.55098 2.9987 7.9987 3.44641 7.9987 3.9987Z" fill="#636870"/>
</svg>
