<svg width="33" height="32" viewBox="0 0 33 32" fill="none" xmlns="http://www.w3.org/2000/svg">
<rect x="0.667969" width="32" height="32" rx="16" fill="#D9DCE1"/>
<path d="M13.3352 16C13.3352 14.1591 14.8271 12.6664 16.668 12.6664C18.5088 12.6664 20.0016 14.1591 20.0016 16C20.0016 17.8409 18.5088 19.3336 16.668 19.3336C14.8271 19.3336 13.3352 17.8409 13.3352 16ZM11.5331 16C11.5331 18.836 13.832 21.1349 16.668 21.1349C19.504 21.1349 21.8028 18.836 21.8028 16C21.8028 13.164 19.504 10.8651 16.668 10.8651C13.832 10.8651 11.5331 13.164 11.5331 16ZM20.8061 10.6615C20.806 10.8989 20.8763 11.1309 21.0081 11.3283C21.1399 11.5257 21.3272 11.6796 21.5465 11.7705C21.7657 11.8614 22.007 11.8852 22.2398 11.839C22.4726 11.7928 22.6864 11.6786 22.8543 11.5109C23.0222 11.3431 23.1366 11.1293 23.183 10.8966C23.2294 10.6638 23.2057 10.4225 23.115 10.2032C23.0242 9.98392 22.8705 9.79644 22.6732 9.6645C22.4759 9.53257 22.2439 9.4621 22.0066 9.462H22.0061C21.688 9.46215 21.3829 9.58856 21.1579 9.81347C20.9329 10.0384 20.8064 10.3434 20.8061 10.6615ZM12.628 24.1398C11.653 24.0954 11.1231 23.933 10.7709 23.7958C10.304 23.614 9.97093 23.3975 9.62069 23.0478C9.27045 22.698 9.05365 22.3652 8.87269 21.8983C8.73541 21.5463 8.57301 21.0162 8.52869 20.0413C8.48021 18.9872 8.47053 18.6706 8.47053 16.0001C8.47053 13.3296 8.48101 13.0138 8.52869 11.9589C8.57309 10.9839 8.73669 10.4549 8.87269 10.1018C9.05445 9.63496 9.27093 9.30184 9.62069 8.9516C9.97045 8.60136 10.3032 8.38456 10.7709 8.2036C11.1229 8.06632 11.653 7.90392 12.628 7.8596C13.682 7.81112 13.9987 7.80144 16.668 7.80144C19.3372 7.80144 19.6542 7.81192 20.7092 7.8596C21.6841 7.904 22.2132 8.0676 22.5662 8.2036C23.0331 8.38456 23.3662 8.60184 23.7164 8.9516C24.0667 9.30136 24.2827 9.63496 24.4644 10.1018C24.6017 10.4538 24.7641 10.9839 24.8084 11.9589C24.8569 13.0138 24.8666 13.3296 24.8666 16.0001C24.8666 18.6706 24.8569 18.9863 24.8084 20.0413C24.764 21.0162 24.6008 21.5462 24.4644 21.8983C24.2827 22.3652 24.0662 22.6983 23.7164 23.0478C23.3667 23.3972 23.0331 23.614 22.5662 23.7958C22.2142 23.933 21.6841 24.0954 20.7092 24.1398C19.6551 24.1882 19.3384 24.1979 16.668 24.1979C13.9975 24.1979 13.6817 24.1882 12.628 24.1398ZM12.5452 6.06056C11.4806 6.10904 10.7532 6.27784 10.1179 6.52504C9.45997 6.78032 8.90301 7.1228 8.34645 7.67848C7.78989 8.23416 7.44829 8.792 7.19301 9.44992C6.94581 10.0856 6.77701 10.8126 6.72853 11.8772C6.67925 12.9434 6.66797 13.2843 6.66797 16C6.66797 18.7157 6.67925 19.0566 6.72853 20.1228C6.77701 21.1874 6.94581 21.9144 7.19301 22.5501C7.44829 23.2076 7.78997 23.7661 8.34645 24.3215C8.90293 24.877 9.45997 25.219 10.1179 25.475C10.7544 25.7222 11.4806 25.891 12.5452 25.9394C13.612 25.9879 13.9523 26 16.668 26C19.3836 26 19.7245 25.9887 20.7908 25.9394C21.8554 25.891 22.5824 25.7222 23.218 25.475C23.8756 25.219 24.4329 24.8772 24.9895 24.3215C25.546 23.7658 25.8869 23.2076 26.1429 22.5501C26.3901 21.9144 26.5597 21.1874 26.6074 20.1228C26.6559 19.0558 26.6672 18.7157 26.6672 16C26.6672 13.2843 26.6559 12.9434 26.6074 11.8772C26.5589 10.8126 26.3901 10.0852 26.1429 9.44992C25.8869 8.7924 25.5452 8.23504 24.9895 7.67848C24.4338 7.12192 23.8756 6.78032 23.2188 6.52504C22.5824 6.27784 21.8553 6.10824 20.7916 6.06056C19.7253 6.01208 19.3844 6 16.6688 6C13.9531 6 13.612 6.01128 12.5452 6.06056Z" fill="white"/>
</svg>
