<svg width="16" height="16" viewBox="0 0 16 16" fill="none" xmlns="http://www.w3.org/2000/svg">
<rect width="16" height="16" rx="8" fill="#6C26FF"/>
<path d="M6.3336 8C6.3336 7.07956 7.07956 6.3332 8 6.3332C8.92044 6.3332 9.6668 7.07956 9.6668 8C9.6668 8.92044 8.92044 9.6668 8 9.6668C7.07956 9.6668 6.3336 8.92044 6.3336 8ZM5.43256 8C5.43256 9.418 6.582 10.5674 8 10.5674C9.418 10.5674 10.5674 9.418 10.5674 8C10.5674 6.582 9.418 5.43256 8 5.43256C6.582 5.43256 5.43256 6.582 5.43256 8ZM10.0691 5.33076C10.069 5.44943 10.1042 5.56545 10.1701 5.66414C10.236 5.76284 10.3296 5.83978 10.4392 5.88524C10.5489 5.93069 10.6695 5.94262 10.7859 5.91952C10.9023 5.89641 11.0092 5.83931 11.0932 5.75543C11.1771 5.67156 11.2343 5.56467 11.2575 5.44829C11.2807 5.33191 11.2689 5.21127 11.2235 5.10161C11.1781 4.99196 11.1013 4.89822 11.0026 4.83225C10.904 4.76628 10.788 4.73105 10.6693 4.731H10.6691C10.51 4.73107 10.3575 4.79428 10.245 4.90673C10.1325 5.01919 10.0692 5.17169 10.0691 5.33076ZM5.98 12.0699C5.49252 12.0477 5.22756 11.9665 5.05148 11.8979C4.81804 11.807 4.65148 11.6988 4.47636 11.5239C4.30124 11.349 4.19284 11.1826 4.10236 10.9492C4.03372 10.7732 3.95252 10.5081 3.93036 10.0206C3.90612 9.4936 3.90128 9.33528 3.90128 8.00004C3.90128 6.6648 3.90652 6.50692 3.93036 5.97944C3.95256 5.49196 4.03436 5.22744 4.10236 5.05092C4.19324 4.81748 4.30148 4.65092 4.47636 4.4758C4.65124 4.30068 4.81764 4.19228 5.05148 4.1018C5.22748 4.03316 5.49252 3.95196 5.98 3.9298C6.50704 3.90556 6.66536 3.90072 8 3.90072C9.33464 3.90072 9.49312 3.90596 10.0206 3.9298C10.5081 3.952 10.7726 4.0338 10.9491 4.1018C11.1826 4.19228 11.3491 4.30092 11.5242 4.4758C11.6994 4.65068 11.8074 4.81748 11.8982 5.05092C11.9669 5.22692 12.0481 5.49196 12.0702 5.97944C12.0945 6.50692 12.0993 6.6648 12.0993 8.00004C12.0993 9.33528 12.0945 9.49316 12.0702 10.0206C12.048 10.5081 11.9664 10.7731 11.8982 10.9492C11.8074 11.1826 11.6991 11.3492 11.5242 11.5239C11.3494 11.6986 11.1826 11.807 10.9491 11.8979C10.7731 11.9665 10.5081 12.0477 10.0206 12.0699C9.49356 12.0941 9.33524 12.099 8 12.099C6.66476 12.099 6.50688 12.0941 5.98 12.0699ZM5.9386 3.03028C5.40632 3.05452 5.0426 3.13892 4.72496 3.26252C4.396 3.39016 4.11752 3.5614 3.83924 3.83924C3.56096 4.11708 3.39016 4.396 3.26252 4.72496C3.13892 5.0428 3.05452 5.40632 3.03028 5.9386C3.00564 6.47172 3 6.64216 3 8C3 9.35784 3.00564 9.52828 3.03028 10.0614C3.05452 10.5937 3.13892 10.9572 3.26252 11.275C3.39016 11.6038 3.561 11.883 3.83924 12.1608C4.11748 12.4385 4.396 12.6095 4.72496 12.7375C5.0432 12.8611 5.40632 12.9455 5.9386 12.9697C6.472 12.994 6.64216 13 8 13C9.35784 13 9.52828 12.9944 10.0614 12.9697C10.5937 12.9455 10.9572 12.8611 11.275 12.7375C11.6038 12.6095 11.8825 12.4386 12.1608 12.1608C12.439 11.8829 12.6095 11.6038 12.7375 11.275C12.8611 10.9572 12.9459 10.5937 12.9697 10.0614C12.994 9.52788 12.9996 9.35784 12.9996 8C12.9996 6.64216 12.994 6.47172 12.9697 5.9386C12.9455 5.40628 12.8611 5.0426 12.7375 4.72496C12.6095 4.3962 12.4386 4.11752 12.1608 3.83924C11.8829 3.56096 11.6038 3.39016 11.2754 3.26252C10.9572 3.13892 10.5937 3.05412 10.0618 3.03028C9.52868 3.00604 9.35824 3 8.0004 3C6.64256 3 6.472 3.00564 5.9386 3.03028Z" fill="white"/>
</svg>
