<svg width="22" height="22" viewBox="0 0 22 22" fill="none" xmlns="http://www.w3.org/2000/svg">
<path d="M9.16536 3.66732C6.1278 3.66732 3.66536 6.12975 3.66536 9.16732C3.66536 12.2049 6.1278 14.6673 9.16536 14.6673C12.2029 14.6673 14.6654 12.2049 14.6654 9.16732C14.6654 6.12975 12.2029 3.66732 9.16536 3.66732ZM1.83203 9.16732C1.83203 5.11723 5.11528 1.83398 9.16536 1.83398C13.2155 1.83398 16.4987 5.11723 16.4987 9.16732C16.4987 10.862 15.9239 12.4224 14.9586 13.6642L19.8969 18.6025C20.2549 18.9605 20.2549 19.5408 19.8969 19.8988C19.5389 20.2568 18.9585 20.2568 18.6005 19.8988L13.6622 14.9605C12.4204 15.9258 10.86 16.5007 9.16536 16.5007C5.11528 16.5007 1.83203 13.2174 1.83203 9.16732Z" fill="#6C26FF"/>
</svg>
