<svg width="32" height="32" viewBox="0 0 32 32" fill="none" xmlns="http://www.w3.org/2000/svg">
<rect width="32" height="32" rx="8" fill="#F1F3F6"/>
<path d="M15.9987 9.66797C16.2512 9.66797 16.4821 9.81064 16.595 10.0365L18.3143 13.475L22.0947 14.0249C22.3458 14.0614 22.5544 14.2373 22.6328 14.4786C22.7112 14.7199 22.6458 14.9848 22.4641 15.162L19.7127 17.8446L20.3316 21.627C20.3725 21.877 20.2682 22.1285 20.0625 22.2762C19.8567 22.4239 19.585 22.4423 19.3612 22.3235L15.9987 20.5393L12.6362 22.3235C12.4124 22.4423 12.1407 22.4239 11.935 22.2762C11.7292 22.1285 11.6249 21.877 11.6658 21.627L12.2847 17.8446L9.53332 15.162C9.35165 14.9848 9.28627 14.7199 9.36468 14.4786C9.44308 14.2373 9.65167 14.0614 9.90276 14.0249L13.6832 13.475L15.4024 10.0365C15.5154 9.81064 15.7462 9.66797 15.9987 9.66797ZM15.9987 11.8253L14.72 14.3828C14.6224 14.5779 14.4356 14.713 14.2197 14.7444L11.431 15.15L13.4641 17.1323C13.6199 17.2842 13.6918 17.5026 13.6566 17.7173L13.1987 20.5156L15.6862 19.1957C15.8817 19.092 16.1158 19.092 16.3112 19.1957L18.7987 20.5156L18.3408 17.7173C18.3057 17.5026 18.3775 17.2842 18.5333 17.1323L20.5665 15.15L17.7778 14.7444C17.5619 14.713 17.375 14.5779 17.2774 14.3828L15.9987 11.8253Z" fill="#242A33"/>
</svg>
