<svg width="32" height="32" viewBox="0 0 32 32" fill="none" xmlns="http://www.w3.org/2000/svg">
<rect width="32" height="32" rx="8" fill="#F1F3F6"/>
<path d="M14.7641 10.1641C14.9622 9.67614 15.4409 9.33203 16 9.33203C16.5591 9.33203 17.0378 9.67614 17.2359 10.1641C19.2134 10.7058 20.6667 12.5159 20.6667 14.6654V17.7968L21.888 19.6289C22.0244 19.8335 22.0371 20.0965 21.9211 20.3133C21.8051 20.53 21.5792 20.6654 21.3333 20.6654H18.3097C18.148 21.7961 17.1755 22.6654 16 22.6654C14.8245 22.6654 13.852 21.7961 13.6903 20.6654H10.6667C10.4208 20.6654 10.1949 20.53 10.0789 20.3133C9.96287 20.0965 9.97559 19.8335 10.112 19.6289L11.3333 17.7968V14.6654C11.3333 12.5159 12.7866 10.7058 14.7641 10.1641ZM15.0569 20.6654C15.1942 21.0538 15.5646 21.332 16 21.332C16.4354 21.332 16.8058 21.0538 16.9431 20.6654H15.0569ZM16 11.332C14.1591 11.332 12.6667 12.8244 12.6667 14.6654V17.9987C12.6667 18.1303 12.6277 18.259 12.5547 18.3685L11.9123 19.332H20.0877L19.4453 18.3685C19.3723 18.259 19.3333 18.1303 19.3333 17.9987V14.6654C19.3333 12.8244 17.841 11.332 16 11.332Z" fill="#242A33"/>
</svg>
