<svg width="41" height="40" viewBox="0 0 41 40" fill="none" xmlns="http://www.w3.org/2000/svg">
<path d="M20.5 4C11.6634 4 4.5 11.1634 4.5 20C4.5 28.8366 11.6634 36 20.5 36C29.3366 36 36.5 28.8366 36.5 20C36.5 11.1634 29.3366 4 20.5 4ZM0.5 20C0.5 8.9543 9.4543 0 20.5 0C31.5457 0 40.5 8.9543 40.5 20C40.5 31.0457 31.5457 40 20.5 40C9.4543 40 0.5 31.0457 0.5 20ZM29.8287 13.5052C30.6543 14.239 30.7287 15.5032 29.9948 16.3287L19.3282 28.3287C18.9486 28.7557 18.4046 29 17.8333 29C17.2621 29 16.7181 28.7557 16.3385 28.3287L11.0052 22.3287C10.2713 21.5032 10.3457 20.239 11.1713 19.5052C11.9968 18.7713 13.261 18.8457 13.9948 19.6713L17.8333 23.9896L27.0052 13.6713C27.739 12.8457 29.0032 12.7713 29.8287 13.5052Z" fill="#1BEE6F"/>
</svg>
