<svg width="21" height="16" viewBox="0 0 21 16" fill="none" xmlns="http://www.w3.org/2000/svg">
<path d="M6.45696 0.292893C6.64449 0.105357 6.89885 0 7.16406 0H13.1641C13.4293 0 13.6836 0.105357 13.8712 0.292893L15.5783 2H18.1641C19.2686 2 20.1641 2.89543 20.1641 4V14C20.1641 15.1046 19.2686 16 18.1641 16H2.16406C1.05949 16 0.164062 15.1046 0.164062 14V4C0.164062 2.89543 1.05949 2 2.16406 2H4.74985L6.45696 0.292893ZM7.57828 2L5.87117 3.70711C5.68363 3.89464 5.42928 4 5.16406 4L2.16406 4V14H18.1641V4H15.1641C14.8988 4 14.6445 3.89464 14.457 3.70711L12.7498 2H7.57828ZM10.1641 6.5C9.05949 6.5 8.16406 7.39543 8.16406 8.5C8.16406 9.60457 9.05949 10.5 10.1641 10.5C11.2686 10.5 12.1641 9.60457 12.1641 8.5C12.1641 7.39543 11.2686 6.5 10.1641 6.5ZM6.16406 8.5C6.16406 6.29086 7.95492 4.5 10.1641 4.5C12.3732 4.5 14.1641 6.29086 14.1641 8.5C14.1641 10.7091 12.3732 12.5 10.1641 12.5C7.95492 12.5 6.16406 10.7091 6.16406 8.5Z" fill="#D9DCE1"/>
</svg>
