<svg width="32" height="32" viewBox="0 0 32 32" fill="none" xmlns="http://www.w3.org/2000/svg">
<rect width="32" height="32" rx="8" fill="#F1F3F6"/>
<path d="M16 10.6654C14.5272 10.6654 13.3333 11.8593 13.3333 13.332C13.3333 14.8048 14.5272 15.9987 16 15.9987C17.4728 15.9987 18.6667 14.8048 18.6667 13.332C18.6667 11.8593 17.4728 10.6654 16 10.6654ZM12 13.332C12 11.1229 13.7909 9.33203 16 9.33203C18.2091 9.33203 20 11.1229 20 13.332C20 15.5412 18.2091 17.332 16 17.332C13.7909 17.332 12 15.5412 12 13.332ZM13.3333 19.9987C12.2288 19.9987 11.3333 20.8941 11.3333 21.9987C11.3333 22.3669 11.0349 22.6654 10.6667 22.6654C10.2985 22.6654 10 22.3669 10 21.9987C10 20.1577 11.4924 18.6654 13.3333 18.6654H18.6667C20.5076 18.6654 22 20.1577 22 21.9987C22 22.3669 21.7015 22.6654 21.3333 22.6654C20.9651 22.6654 20.6667 22.3669 20.6667 21.9987C20.6667 20.8941 19.7712 19.9987 18.6667 19.9987H13.3333Z" fill="#242A33"/>
</svg>
