<svg width="50" height="50" viewBox="0 0 50 50" fill="none" xmlns="http://www.w3.org/2000/svg">
<path d="M25 8.33341C20.3976 8.33341 16.6667 12.0644 16.6667 16.6667C16.6667 21.2691 20.3976 25.0001 25 25.0001C29.6024 25.0001 33.3333 21.2691 33.3333 16.6667C33.3333 12.0644 29.6024 8.33341 25 8.33341ZM12.5 16.6667C12.5 9.76319 18.0964 4.16675 25 4.16675C31.9036 4.16675 37.5 9.76319 37.5 16.6667C37.5 23.5703 31.9036 29.1667 25 29.1667C18.0964 29.1667 12.5 23.5703 12.5 16.6667ZM16.6667 37.5001C13.2149 37.5001 10.4167 40.2983 10.4167 43.7501C10.4167 44.9007 9.48393 45.8334 8.33333 45.8334C7.18274 45.8334 6.25 44.9007 6.25 43.7501C6.25 37.9971 10.9137 33.3334 16.6667 33.3334H33.3333C39.0863 33.3334 43.75 37.9971 43.75 43.7501C43.75 44.9007 42.8173 45.8334 41.6667 45.8334C40.5161 45.8334 39.5833 44.9007 39.5833 43.7501C39.5833 40.2983 36.7851 37.5001 33.3333 37.5001H16.6667Z" fill="#A6ADB8"/>
</svg>
