<svg width="16" height="16" viewBox="0 0 16 16" fill="none" xmlns="http://www.w3.org/2000/svg">
<rect width="16" height="16" rx="8" fill="#6C26FF"/>
<path fill-rule="evenodd" clip-rule="evenodd" d="M9.78032 11.9617C10.3395 12.2063 10.5492 11.6937 10.5492 11.6937L12.0286 4.26144C12.017 3.76052 11.3413 4.0634 11.3413 4.0634L3.05863 7.31358C3.05863 7.31358 2.66255 7.45337 2.6975 7.69801C2.73244 7.94265 3.04698 8.05914 3.04698 8.05914L5.13222 8.7581C5.13222 8.7581 5.76128 10.82 5.88943 11.2161C6.00592 11.6005 6.11076 11.6122 6.11076 11.6122C6.22726 11.6588 6.3321 11.5773 6.3321 11.5773L7.68343 10.3541L9.78032 11.9617ZM10.1415 5.57781C10.1415 5.57781 10.4327 5.40307 10.421 5.57781C10.421 5.57781 10.4676 5.60111 10.3162 5.7642C10.1764 5.90399 6.87963 8.86293 6.43695 9.25901C6.402 9.28231 6.3787 9.31726 6.3787 9.36386L6.25056 10.4589C6.22726 10.5754 6.07582 10.587 6.04087 10.4822L5.49335 8.68819C5.47005 8.6183 5.49335 8.53675 5.56325 8.49015L10.1415 5.57781Z" fill="white"/>
</svg>
