<svg width="33" height="32" viewBox="0 0 33 32" fill="none" xmlns="http://www.w3.org/2000/svg">
<rect x="0.667969" width="32" height="32" rx="16" fill="#D9DCE1"/>
<path fill-rule="evenodd" clip-rule="evenodd" d="M20.2247 23.9234C21.343 24.4126 21.7624 23.3875 21.7624 23.3875L24.7214 8.52289C24.6981 7.52104 23.3467 8.12681 23.3467 8.12681L6.78132 14.6272C6.78132 14.6272 5.98916 14.9067 6.05906 15.396C6.12895 15.8853 6.75802 16.1183 6.75802 16.1183L10.9285 17.5162C10.9285 17.5162 12.1866 21.6401 12.4429 22.4322C12.6759 23.2011 12.8856 23.2244 12.8856 23.2244C13.1186 23.3176 13.3283 23.1545 13.3283 23.1545L16.0309 20.7081L20.2247 23.9234ZM20.947 11.1556C20.947 11.1556 21.5294 10.8061 21.5061 11.1556C21.5061 11.1556 21.5993 11.2022 21.2964 11.5284C21.0169 11.808 14.4233 17.7259 13.538 18.518C13.4681 18.5646 13.4215 18.6345 13.4215 18.7277L13.1652 20.9178C13.1186 21.1508 12.8157 21.1741 12.7458 20.9644L11.6508 17.3764C11.6042 17.2366 11.6508 17.0735 11.7906 16.9803L20.947 11.1556Z" fill="white"/>
</svg>
