<svg width="33" height="32" viewBox="0 0 33 32" fill="none" xmlns="http://www.w3.org/2000/svg">
<rect x="0.667969" width="32" height="32" rx="16" fill="#D9DCE1"/>
<path d="M24.5109 12.541C24.5109 12.716 24.5109 12.891 24.5109 13.041C24.5109 18.216 20.5609 24.191 13.3609 24.191C11.1359 24.191 9.08594 23.541 7.33594 22.441C7.63594 22.466 7.96094 22.491 8.26094 22.491C10.0859 22.491 11.7859 21.866 13.1359 20.816C11.4109 20.791 9.96094 19.641 9.48594 18.091C9.73594 18.141 9.96094 18.166 10.2359 18.166C10.5859 18.166 10.9359 18.116 11.2609 18.016C9.46094 17.666 8.11094 16.091 8.11094 14.191C8.11094 14.166 8.11094 14.166 8.11094 14.141C8.63594 14.441 9.23594 14.616 9.88594 14.641C8.83594 13.941 8.13594 12.741 8.13594 11.366C8.13594 10.641 8.33594 9.96602 8.66094 9.39102C10.5859 11.766 13.4859 13.316 16.7359 13.491C16.6609 13.216 16.6359 12.891 16.6359 12.591C16.6359 10.416 18.3859 8.66602 20.5609 8.66602C21.6859 8.66602 22.7109 9.14102 23.4109 9.89102C24.3109 9.71602 25.1359 9.39102 25.9109 8.94102C25.6109 9.86602 24.9859 10.616 24.1859 11.116C24.9859 11.016 25.7359 10.816 26.4359 10.491C25.9359 11.291 25.2859 11.991 24.5109 12.541Z" fill="white"/>
</svg>
