<svg width="33" height="32" viewBox="0 0 33 32" fill="none" xmlns="http://www.w3.org/2000/svg">
<rect x="0.667969" width="32" height="32" rx="16" fill="#D9DCE1"/>
<path fill-rule="evenodd" clip-rule="evenodd" d="M26.8439 11.0239C26.9922 10.5294 26.8439 10.166 26.138 10.166H23.8042C23.2107 10.166 22.9373 10.4799 22.7889 10.8262C22.7889 10.8262 21.602 13.719 19.9206 15.5981C19.3766 16.1421 19.1294 16.315 18.8327 16.315C18.6843 16.315 18.4696 16.1421 18.4696 15.6476V11.0239C18.4696 10.4304 18.2974 10.166 17.8028 10.166H14.1352C13.7645 10.166 13.5414 10.4414 13.5414 10.7025C13.5414 11.2651 14.382 11.3948 14.4686 12.9772V16.4141C14.4686 17.1677 14.3326 17.3043 14.0359 17.3043C13.2447 17.3043 11.3202 14.3983 10.1786 11.0734C9.95492 10.4271 9.73054 10.166 9.13406 10.166H6.80019C6.13336 10.166 6 10.4799 6 10.8262C6 11.4443 6.79135 14.5104 9.68419 18.5653C11.613 21.3343 14.3299 22.8356 16.8025 22.8356C18.2862 22.8356 18.4696 22.5022 18.4696 21.9279V19.8349C18.4696 19.1681 18.6101 19.0351 19.0797 19.0351C19.4261 19.0351 20.0194 19.2081 21.4043 20.5433C22.9866 22.1255 23.2474 22.8356 24.1376 22.8356H26.4714C27.1383 22.8356 27.4717 22.5022 27.2793 21.8442C27.0689 21.1884 26.3134 20.2372 25.3108 19.1093C24.7669 18.4663 23.9509 17.774 23.7038 17.4279C23.3576 16.9828 23.4564 16.7851 23.7038 16.3896C23.7038 16.3896 26.5471 12.384 26.8439 11.024V11.0239Z" fill="white"/>
</svg>
