<svg width="16" height="16" viewBox="0 0 16 16" fill="none" xmlns="http://www.w3.org/2000/svg">
<rect width="16" height="16" rx="8" fill="#6C26FF"/>
<path fill-rule="evenodd" clip-rule="evenodd" d="M13.0899 5.51097C13.1641 5.26374 13.0899 5.08203 12.737 5.08203H11.57C11.2733 5.08203 11.1366 5.23898 11.0624 5.41211C11.0624 5.41211 10.469 6.85853 9.62826 7.79808C9.35628 8.07006 9.23267 8.1565 9.0843 8.1565C9.01012 8.1565 8.90276 8.07006 8.90276 7.82284V5.51097C8.90276 5.21423 8.81665 5.08203 8.56935 5.08203H6.73558C6.55021 5.08203 6.43868 5.21973 6.43868 5.35026C6.43868 5.63158 6.85895 5.69642 6.90229 6.48761V8.20609C6.90229 8.58285 6.83427 8.6512 6.68591 8.6512C6.29031 8.6512 5.32809 7.19819 4.75729 5.53572C4.64543 5.21256 4.53324 5.08203 4.235 5.08203H3.06806C2.73465 5.08203 2.66797 5.23898 2.66797 5.41211C2.66797 5.72118 3.06364 7.25421 4.51007 9.28168C5.47446 10.6662 6.83294 11.4168 8.06923 11.4168C8.81107 11.4168 8.90276 11.2501 8.90276 10.963V9.91649C8.90276 9.58308 8.97302 9.51657 9.20783 9.51657C9.38104 9.51657 9.67769 9.60309 10.3701 10.2707C11.1613 11.0618 11.2916 11.4168 11.7368 11.4168H12.9037C13.2371 11.4168 13.4038 11.2501 13.3076 10.9211C13.2024 10.5932 12.8247 10.1176 12.3234 9.55366C12.0514 9.23217 11.6434 8.886 11.5199 8.71296C11.3467 8.49041 11.3962 8.39155 11.5199 8.19384C11.5199 8.19384 12.9415 6.19104 13.0899 5.51105V5.51097Z" fill="white"/>
</svg>
