<svg width="44" height="44" viewBox="0 0 44 44" fill="none" xmlns="http://www.w3.org/2000/svg">
<rect x="0.5" y="0.5" width="43" height="43" rx="21.5" fill="white"/>
<path d="M22 14C17.5817 14 14 17.5817 14 22C14 26.4183 17.5817 30 22 30C26.4183 30 30 26.4183 30 22C30 17.5817 26.4183 14 22 14ZM12 22C12 16.4772 16.4772 12 22 12C27.5228 12 32 16.4772 32 22C32 27.5228 27.5228 32 22 32C16.4772 32 12 27.5228 12 22Z" fill="#FFC224"/>
<path d="M22 24C21.4477 24 21 23.5523 21 23L21 17C21 16.4477 21.4477 16 22 16C22.5523 16 23 16.4477 23 17L23 23C23 23.5523 22.5523 24 22 24Z" fill="#FFC224"/>
<path d="M20.5 26.5C20.5 25.6716 21.1716 25 22 25C22.8284 25 23.5 25.6716 23.5 26.5C23.5 27.3284 22.8284 28 22 28C21.1716 28 20.5 27.3284 20.5 26.5Z" fill="#FFC224"/>
<rect x="0.5" y="0.5" width="43" height="43" rx="21.5" stroke="#FFC224"/>
</svg>
