<svg width="33" height="32" viewBox="0 0 33 32" fill="none" xmlns="http://www.w3.org/2000/svg">
<rect x="0.667969" width="32" height="32" rx="16" fill="#D9DCE1"/>
<path fill-rule="evenodd" clip-rule="evenodd" d="M24.4933 9.42638C25.3499 9.65702 26.0254 10.3325 26.256 11.1891C26.6844 12.7542 26.6679 16.0161 26.6679 16.0161C26.6679 16.0161 26.6679 19.2616 26.256 20.8267C26.0254 21.6833 25.3499 22.3588 24.4933 22.5894C22.9282 23.0013 16.6679 23.0013 16.6679 23.0013C16.6679 23.0013 10.4241 23.0013 8.84259 22.5729C7.98592 22.3423 7.31047 21.6669 7.07983 20.8102C6.66797 19.2616 6.66797 15.9997 6.66797 15.9997C6.66797 15.9997 6.66797 12.7542 7.07983 11.1891C7.31047 10.3325 8.00239 9.64055 8.84259 9.40991C10.4077 8.99805 16.6679 8.99805 16.6679 8.99805C16.6679 8.99805 22.9282 8.99805 24.4933 9.42638ZM19.8804 15.9997L14.6745 18.998V13.0013L19.8804 15.9997Z" fill="white"/>
</svg>
